v -100.000000 0.000000 0.000000
v 0.000000 0.000000 100.000000
v 100.000000 0.000000 0.000000
v 0.000000 0.000000 -100.000000
v 0.000000 100.000000 0.000000
v 0.000000 -100.000000 0.000000
v 0.000000 44.721360 89.442719
v 0.000000 89.442719 44.721360
v -89.442719 0.000000 44.721360
v -44.721360 0.000000 89.442719
v -89.442719 44.721360 0.000000
v -44.721360 89.442719 0.000000
v 89.442719 44.721360 0.000000
v 44.721360 89.442719 0.000000
v 44.721360 0.000000 89.442719
v 89.442719 0.000000 44.721360
v 0.000000 44.721360 -89.442719
v 0.000000 89.442719 -44.721360
v 89.442719 0.000000 -44.721360
v 44.721360 0.000000 -89.442719
v -89.442719 0.000000 -44.721360
v -44.721360 0.000000 -89.442719
v -89.442719 -44.721360 0.000000
v -44.721360 -89.442719 0.000000
v 0.000000 -44.721360 89.442719
v 0.000000 -89.442719 44.721360
v 89.442719 -44.721360 0.000000
v 44.721360 -89.442719 0.000000
v 0.000000 -44.721360 -89.442719
v 0.000000 -89.442719 -44.721360
v -57.735027 57.735027 57.735027
v 57.735027 57.735027 57.735027
v 57.735027 57.735027 -57.735027
v -57.735027 57.735027 -57.735027
v -57.735027 -57.735027 57.735027
v 57.735027 -57.735027 57.735027
v 57.735027 -57.735027 -57.735027
v -57.735027 -57.735027 -57.735027
# 38 vertices

f 12 8 5
f 31 7 8
f 8 12 31
f 11 31 12
f 10 2 7
f 7 31 10
f 9 10 31
f 31 11 9
f 1 9 11
f 8 14 5
f 32 13 14
f 14 8 32
f 7 32 8
f 16 3 13
f 13 32 16
f 15 16 32
f 32 7 15
f 2 15 7
f 14 18 5
f 33 17 18
f 18 14 33
f 13 33 14
f 20 4 17
f 17 33 20
f 19 20 33
f 33 13 19
f 3 19 13
f 18 12 5
f 34 11 12
f 12 18 34
f 17 34 18
f 21 1 11
f 11 34 21
f 22 21 34
f 34 17 22
f 4 22 17
f 26 24 6
f 35 23 24
f 24 26 35
f 25 35 26
f 9 1 23
f 23 35 9
f 10 9 35
f 35 25 10
f 2 10 25
f 28 26 6
f 36 25 26
f 26 28 36
f 27 36 28
f 15 2 25
f 25 36 15
f 16 15 36
f 36 27 16
f 3 16 27
f 30 28 6
f 37 27 28
f 28 30 37
f 29 37 30
f 19 3 27
f 27 37 19
f 20 19 37
f 37 29 20
f 4 20 29
f 24 30 6
f 38 29 30
f 30 24 38
f 23 38 24
f 22 4 29
f 29 38 22
f 21 22 38
f 38 23 21
f 1 21 23

