v -100.000000 0.000000 0.000000
v 0.000000 0.000000 100.000000
v 100.000000 0.000000 0.000000
v 0.000000 0.000000 -100.000000
v 0.000000 100.000000 0.000000
v 0.000000 -100.000000 0.000000
v 0.000000 44.721360 89.442719
v 0.000000 89.442719 44.721360
v -89.442719 0.000000 44.721360
v -44.721360 0.000000 89.442719
v -89.442719 44.721360 0.000000
v -44.721360 89.442719 0.000000
v 89.442719 44.721360 0.000000
v 44.721360 89.442719 0.000000
v 44.721360 0.000000 89.442719
v 89.442719 0.000000 44.721360
v 0.000000 44.721360 -89.442719
v 0.000000 89.442719 -44.721360
v 89.442719 0.000000 -44.721360
v 44.721360 0.000000 -89.442719
v -89.442719 0.000000 -44.721360
v -44.721360 0.000000 -89.442719
v -89.442719 -44.721360 0.000000
v -44.721360 -89.442719 0.000000
v 0.000000 -44.721360 89.442719
v 0.000000 -89.442719 44.721360
v 89.442719 -44.721360 0.000000
v 44.721360 -89.442719 0.000000
v 0.000000 -44.721360 -89.442719
v 0.000000 -89.442719 -44.721360
v -57.735027 57.735027 57.735027
v 57.735027 57.735027 57.735027
v 57.735027 57.735027 -57.735027
v -57.735027 57.735027 -57.735027
v -57.735027 -57.735027 57.735027
v 57.735027 -57.735027 57.735027
v 57.735027 -57.735027 -57.735027
v -57.735027 -57.735027 -57.735027
# 38 vertices

vn 0.000000 1.000000 0.000000
vn -0.000000 0.887090 0.461596
vn -0.461596 0.887090 -0.000000
vn 0.000000 0.461596 0.887090
vn -0.577350 0.577350 0.577350
vn -0.887090 0.461596 0.000000
vn 0.000000 0.000000 1.000000
vn -0.461596 0.000000 0.887090
vn -0.887090 0.000000 0.461596
vn -1.000000 0.000000 0.000000
vn 0.461596 0.887090 0.000000
vn 0.887090 0.461596 0.000000
vn 0.577350 0.577350 0.577350
vn 1.000000 0.000000 0.000000
vn 0.887090 0.000000 0.461596
vn 0.461596 0.000000 0.887090
vn 0.000000 0.887090 -0.461596
vn 0.000000 0.461596 -0.887090
vn 0.577350 0.577350 -0.577350
vn 0.000000 0.000000 -1.000000
vn 0.461596 0.000000 -0.887090
vn 0.887090 0.000000 -0.461596
vn -0.577350 0.577350 -0.577350
vn -0.887090 0.000000 -0.461596
vn -0.461596 0.000000 -0.887090
vn 0.000000 -1.000000 0.000000
vn -0.461596 -0.887090 0.000000
vn 0.000000 -0.887090 0.461596
vn -0.887090 -0.461596 0.000000
vn -0.577350 -0.577350 0.577350
vn 0.000000 -0.461596 0.887090
vn 0.461596 -0.887090 -0.000000
vn 0.577350 -0.577350 0.577350
vn 0.887090 -0.461596 0.000000
vn -0.000000 -0.887090 -0.461596
vn 0.577350 -0.577350 -0.577350
vn 0.000000 -0.461596 -0.887090
vn -0.577350 -0.577350 -0.577350
# 38 normals

f 12//3 8//2 5//1
f 31//5 7//4 8//2
f 8//2 12//3 31//5
f 11//6 31//5 12//3
f 10//8 2//7 7//4
f 7//4 31//5 10//8
f 9//9 10//8 31//5
f 31//5 11//6 9//9
f 1//10 9//9 11//6
f 8//2 14//11 5//1
f 32//13 13//12 14//11
f 14//11 8//2 32//13
f 7//4 32//13 8//2
f 16//15 3//14 13//12
f 13//12 32//13 16//15
f 15//16 16//15 32//13
f 32//13 7//4 15//16
f 2//7 15//16 7//4
f 14//11 18//17 5//1
f 33//19 17//18 18//17
f 18//17 14//11 33//19
f 13//12 33//19 14//11
f 20//21 4//20 17//18
f 17//18 33//19 20//21
f 19//22 20//21 33//19
f 33//19 13//12 19//22
f 3//14 19//22 13//12
f 18//17 12//3 5//1
f 34//23 11//6 12//3
f 12//3 18//17 34//23
f 17//18 34//23 18//17
f 21//24 1//10 11//6
f 11//6 34//23 21//24
f 22//25 21//24 34//23
f 34//23 17//18 22//25
f 4//20 22//25 17//18
f 26//28 24//27 6//26
f 35//30 23//29 24//27
f 24//27 26//28 35//30
f 25//31 35//30 26//28
f 9//9 1//10 23//29
f 23//29 35//30 9//9
f 10//8 9//9 35//30
f 35//30 25//31 10//8
f 2//7 10//8 25//31
f 28//32 26//28 6//26
f 36//33 25//31 26//28
f 26//28 28//32 36//33
f 27//34 36//33 28//32
f 15//16 2//7 25//31
f 25//31 36//33 15//16
f 16//15 15//16 36//33
f 36//33 27//34 16//15
f 3//14 16//15 27//34
f 30//35 28//32 6//26
f 37//36 27//34 28//32
f 28//32 30//35 37//36
f 29//37 37//36 30//35
f 19//22 3//14 27//34
f 27//34 37//36 19//22
f 20//21 19//22 37//36
f 37//36 29//37 20//21
f 4//20 20//21 29//37
f 24//27 30//35 6//26
f 38//38 29//37 30//35
f 30//35 24//27 38//38
f 23//29 38//38 24//27
f 22//25 4//20 29//37
f 29//37 38//38 22//25
f 21//24 22//25 38//38
f 38//38 23//29 21//24
f 1//10 21//24 23//29

