v -60.67799377441406 -83.46300506591797 -276.0809326171875
v 60.60538864135742 -83.46300506591797 -276.0809326171875
v 98.08647918701172 31.88835334777832 -276.0809326171875
v -0.04044900089502 103.17205047607422 -276.0809326171875
v -98.12596893310547 31.88835334777832 -276.0809326171875
v -190.62635803222656 62.03728866577148 -215.66015625
v -118.00983428955078 -162.41029357910156 -215.76649475097656
v 117.96209716796875 -162.41029357910156 -215.76649475097656
v 190.89451599121094 61.98160171508789 -215.83927917480469
v -0.04044900089502 200.76046752929688 -215.76649475097656
v 215.99063110351562 -130.52980041503906 -152.19369506835938
v 251.54034423828125 -21.36963844299316 -151.98243713378906
v 190.89451599121094 165.20976257324219 -152.05523681640625
v 98.08647918701172 232.64094543457031 -152.05523681640625
v -98.12596893310547 232.64094543457031 -152.05523681640625
v -190.8487548828125 165.20976257324219 -151.94924926757812
v -251.563232421875 -21.4252986907959 -152.05523681640625
v -216.10365295410156 -130.52980041503906 -152.05523681640625
v -57.39715576171875 -245.88114929199219 -152.05523681640625
v 57.23465728759766 -245.88114929199219 -151.91659545898438
v -118.00983428955078 -265.582763671875 -48.90755844116211
v -216.10365295410156 -194.290771484375 -48.90755844116211
v 118.05210876464844 -265.582763671875 -48.87496566772461
v 216.17892456054688 -194.290771484375 -49.04621505737305
v 289.01309204101562 30.15679550170898 -48.87487030029297
v 251.54037475585938 145.50816345214844 -48.94031143188477
v 60.60538864135742 284.22308349609375 -48.90755844116211
v -60.67799377441406 284.22308349609375 -48.90755844116211
v -251.85423278808594 145.50816345214844 -49.01396560668945
v -289.01123046875 30.15679550170898 -48.90755844116211
v -60.67799377441406 -284.22390747070312 48.68912506103516
v 60.60538864135742 -284.22390747070312 48.68912506103516
v 251.54034423828125 -145.50070190429688 48.68912506103516
v 289.01315307617188 -30.14935874938965 48.68912506103516
v 216.08076477050781 194.2982177734375 48.68912506103516
v 117.96209716796875 265.5902099609375 48.68912506103516
v -216.10365295410156 194.2982177734375 48.68912506103516
v -118.00983428955078 265.5902099609375 48.68912506103516
v -251.563232421875 -145.50070190429688 48.68912506103516
v -288.86544799804688 -30.14935874938965 48.6036376953125
v 98.08647918701172 -232.63346862792969 151.97845458984375
v 190.89451599121094 -165.20237731933594 151.86067199707031
v -190.91740417480469 -165.20231628417969 151.91949462890625
v -98.12596893310547 -232.63352966308594 151.91949462890625
v -251.59768676757812 21.43274688720703 151.89926147460938
v -216.10365295410156 130.53721618652344 151.91949462890625
v -57.39715576171875 245.88859558105469 151.91949462890625
v 57.32453536987305 245.88859558105469 151.91949462890625
v 251.54034423828125 21.43274688720703 151.91949462890625
v 216.08076477050781 130.53721618652344 151.91949462890625
v -0.03216899931431 -200.75303649902344 215.63084411621094
v -191.06315612792969 -62.03812408447266 215.71627807617188
v -118.00983428955078 162.417724609375 215.63081359863281
v 117.96209716796875 162.417724609375 215.63081359863281
v 190.89451599121094 -62.02983474731445 215.63081359863281
v -60.67793273925781 83.47044372558594 275.87210083007812
v 60.60527420043945 83.47044372558594 276.08377075195312
v 98.08647918701172 -31.88090705871582 275.9453125
v -0.03216899931431 -103.16461181640625 275.9453125
v -98.12583923339844 -31.88090705871582 275.80673217773438
v 45.4459114074707 36.81167984008789 276.04916381835938
v 30.28655242919922 -9.84708404541016 276.0145263671875
v 15.1271915435791 -56.5058479309082 275.97991943359375
v 69.97557830810547 54.63260650634766 276.04916381835938
v 79.34587860107422 25.79476928710938 276.0145263671875
v 88.71617889404297 -3.04306864738464 275.97991943359375
v 73.55681610107422 -49.70183563232422 275.9453125
v 49.02715301513672 -67.52275848388672 275.9453125
v 24.49749183654785 -85.34368896484375 275.9453125
v 97.01359558105469 217.05075073242188 151.91949462890625
v 136.70265197753906 188.21290588378906 151.91949462890625
v 176.39170837402344 159.37506103515625 151.91949462890625
v 191.55110168457031 138.50733947753906 167.84733581542969
v 167.02142333984375 146.47746276855469 183.77516174316406
v 142.49176025390625 154.44760131835938 199.70298767089844
v 72.48392486572266 225.0208740234375 167.84733581542969
v 87.64331817626953 204.15316772460938 183.77516174316406
v 102.80270385742188 183.28544616699219 199.70298767089844
v 236.37889099121094 -124.63298797607422 90.42454528808594
v 221.21743774414062 -103.76526641845703 132.15997314453125
v 206.05596923828125 -82.89755249023438 173.89540100097656
v 236.37889099121094 -150.42611694335938 74.48200988769531
v 221.21743774414062 -155.35153198242188 100.27490234375
v 206.05596923828125 -160.27694702148438 126.06778717041016
v 190.89451599121094 -139.40924072265625 167.80320739746094
v 190.89451599121094 -113.61610412597656 183.74574279785156
v 190.89451599121094 -87.82296752929688 199.68827819824219
v 236.37889099121094 25.27521133422852 -152.00064086914062
v 221.21743774414062 71.92005920410156 -152.01884460449219
v 206.05596923828125 118.56491088867188 -152.03703308105469
v 190.89451599121094 87.78864288330078 -199.89326477050781
v 190.89451599121094 113.59568023681641 -183.94725036621094
v 190.89451599121094 139.40272521972656 -168.00125122070312
v 206.05596923828125 41.14379119873047 -199.87506103515625
v 221.21743774414062 20.30598068237305 -183.91085815429688
v 236.37889099121094 -0.53182876110077 -167.9466552734375
v 176.3016357421875 -159.36764526367188 -152.12442016601562
v 136.61264038085938 -188.20547485351562 -152.05514526367188
v 96.92365264892578 -217.04331970214844 -151.98587036132812
v 142.46922302246094 -154.44017028808594 -199.873291015625
v 166.97636413574219 -146.47004699707031 -183.98008728027344
v 191.48348999023438 -138.49992370605469 -168.08688354492188
v 102.78023529052734 -183.27801513671875 -199.80401611328125
v 87.59837341308594 -204.14572143554688 -183.84153747558594
v 72.41651916503906 -225.01344299316406 -167.87907409667969
v -20.98687744140625 -54.62516403198242 -276.0809326171875
v 18.7042407989502 -25.78732490539551 -276.0809326171875
v 58.39535903930664 3.05051398277283 -276.0809326171875
v -30.35714912414551 -83.46300506591797 -276.0809326171875
v -0.03630299866199 -83.46300506591797 -276.0809326171875
v 30.28454208374023 -83.46300506591797 -276.0809326171875
v 69.97566223144531 -54.62516403198242 -276.0809326171875
v 79.34593200683594 -25.78732490539551 -276.0809326171875
v 88.71620178222656 3.05051398277283 -276.0809326171875
v -215.22257995605469 54.06716537475586 -173.97200012207031
v -239.81878662109375 46.09704208374023 -132.28385925292969
v -264.41500854492188 38.12691879272461 -90.595703125
v -260.92523193359375 -8.52977466583252 -126.26831817626953
v -270.2872314453125 4.36574840545654 -100.48139953613281
v -279.64923095703125 17.26127243041992 -74.69448089599609
v -205.86058044433594 41.1716423034668 -199.75892639160156
v -221.09478759765625 20.30599594116211 -183.85769653320312
v -236.32901000976562 -0.55965149402618 -167.95646667480469
v -118.00983428955078 -188.20341491699219 -174.0517578125
v -118.00983428955078 -213.99653625488281 -132.33702087402344
v -118.00983428955078 -239.78965759277344 -90.62229156494141
v -72.55032348632812 -250.80654907226562 -126.26831817626953
v -87.70349884033203 -255.73196411132812 -100.48139953613281
v -102.85666656494141 -260.65737915039062 -74.69448089599609
v -102.85666656494141 -183.27801513671875 -199.83868408203125
v -87.70349884033203 -204.14572143554688 -183.91085815429688
v -72.55032348632812 -225.01344299316406 -167.98304748535156
v -264.37844848632812 -63.91259765625 74.43260192871094
v -239.89143371582031 -97.67583465576172 100.26156616210938
v -215.4044189453125 -131.43907165527344 126.09053039550781
v -236.40177917480469 -150.42610168457031 74.49671936035156
v -221.24031066894531 -155.35151672363281 100.30431365966797
v -206.078857421875 -160.27691650390625 126.11190795898438
v -260.8887939453125 -116.66286468505859 48.66775131225586
v -270.21435546875 -87.82503509521484 48.64638137817383
v -279.5399169921875 -58.9871940612793 48.62500762939453
v 20.92254829406738 -271.32632446289062 74.49671936035156
v -18.76029014587402 -258.4287109375 100.30431365966797
v -58.44313049316406 -245.5311279296875 126.11190795898438
v -30.35714912414551 -284.22390747070312 48.68912506103516
v -0.03630299866199 -284.22390747070312 48.68912506103516
v 30.28454208374023 -284.22390747070312 48.68912506103516
v -70.03998565673828 -271.32632446289062 74.49671936035156
v -79.4019775390625 -258.4287109375 100.30431365966797
v -88.76397705078125 -245.5311279296875 126.11190795898438
v -176.42701721191406 207.19581604003906 74.49671936035156
v -136.75039672851562 220.09341430664062 100.30431365966797
v -97.07377624511719 232.99099731445312 126.11190795898438
v -191.5802001953125 212.1212158203125 48.68912506103516
v -167.05674743652344 229.9442138671875 48.68912506103516
v -142.53329467773438 247.7672119140625 48.68912506103516
v -102.85666656494141 260.66482543945312 74.49671936035156
v -87.70349884033203 255.73941040039062 100.30431365966797
v -72.55032348632812 250.81401062011719 126.11190795898438
v 58.39535903930664 245.53646850585938 -126.26831817626953
v 18.7042407989502 258.4320068359375 -100.48139953613281
v -20.98687744140625 271.32754516601562 -74.69448089599609
v 88.71620178222656 245.53646850585938 -126.26831817626953
v 79.34593200683594 258.4320068359375 -100.48139953613281
v 69.97566223144531 271.32754516601562 -74.69448089599609
v 30.28454208374023 284.22308349609375 -48.90755844116211
v -0.03630299866199 284.22308349609375 -48.90755844116211
v -30.35714912414551 284.22308349609375 -48.90755844116211
v 103.6904296875 -270.2430419921875 -24.48394203186035
v 89.32875061035156 -274.90335083007812 -0.09292049705982
v 74.96707153320312 -279.56362915039062 24.2981014251709
v 72.43901824951172 -250.80654907226562 -126.15618896484375
v 87.64338684082031 -255.73196411132812 -100.39578247070312
v 102.84774780273438 -260.65737915039062 -74.6353759765625
v -28.73920249938965 -245.88114929199219 -152.02058410644531
v -0.08124899864197 -245.88114929199219 -151.98591613769531
v 28.57670402526855 -245.88114929199219 -151.95126342773438
v -27.89651870727539 -255.46684265136719 -101.86914825439453
v 1.60411655902863 -265.05252075195312 -51.68305969238281
v 31.10475158691406 -274.63821411132812 -1.49696695804596
v -103.67687225341797 -270.2430419921875 -24.50838661193848
v -89.34391784667969 -274.90335083007812 -0.10921649634838
v -75.01095581054688 -279.56362915039062 24.28995323181152
v 74.94456481933594 -103.1998291015625 -261.0023193359375
v 89.28374481201172 -122.93665313720703 -245.9237060546875
v 103.62291717529297 -142.67347717285156 -230.8450927734375
v -31.19983100891113 -124.06754302978516 -245.03984069824219
v -1.72166848182678 -164.67207336425781 -213.99876403808594
v 27.75649452209473 -205.276611328125 -182.95767211914062
v -75.01095581054688 -103.1998291015625 -261.0023193359375
v -89.34391784667969 -122.93665313720703 -245.9237060546875
v -103.67687225341797 -142.67347717285156 -230.8450927734375
v 289.01309204101562 15.08025646209717 -24.48387336730957
v 289.01312255859375 0.00371850002557 -0.09287399798632
v 289.01315307617188 -15.07281970977783 24.29812431335449
v 260.90853881835938 -8.48803043365479 -126.20555114746094
v 270.2767333984375 4.39357805252075 -100.42865753173828
v 279.6448974609375 17.27518653869629 -74.65176391601562
v 224.8780517578125 -103.23976898193359 -152.14088439941406
v 233.76548767089844 -75.94972229003906 -152.08805847167969
v 242.65292358398438 -48.6596794128418 -152.03524780273438
v 234.24626159667969 -105.4346923828125 -101.97298431396484
v 252.50189208984375 -80.33958435058594 -51.75228118896484
v 270.75753784179688 -55.24446868896484 -1.53157949447632
v 216.03770446777344 -146.47004699707031 -126.40682220458984
v 216.08477783203125 -162.41029357910156 -100.61994934082031
v 216.13185119628906 -178.35052490234375 -74.83308410644531
v 225.019287109375 -182.09324645996094 -24.61237907409668
v 233.85963439941406 -169.89573669433594 -0.17854499816895
v 242.69999694824219 -157.69822692871094 24.25528907775879
v 260.90853881835938 -116.66286468505859 48.68912506103516
v 270.27676391601562 -87.82503509521484 48.68912506103516
v 279.64495849609375 -58.9871940612793 48.68912506103516
v 121.28848266601562 39.41166687011719 -261.0205078125
v 144.49049377441406 46.93497848510742 -245.96009826660156
v 167.6925048828125 54.45829010009766 -230.89968872070312
v 108.33912658691406 -67.93965911865234 -245.05630493164062
v 156.0728759765625 -52.41632080078125 -214.03169250488281
v 203.80661010742188 -36.89297866821289 -183.00706481933594
v -70.03998565673828 -54.62516403198242 -276.0809326171875
v -79.4019775390625 -25.78732490539551 -276.0809326171875
v -88.76397705078125 3.05051398277283 -276.0809326171875
v -121.25106811523438 39.42558670043945 -260.97573852539062
v -144.37615966796875 46.96282196044922 -245.87054443359375
v -167.50125122070312 54.50005340576172 -230.76535034179688
v -108.39930725097656 -67.95357513427734 -245.07450866699219
v -156.12062072753906 -52.44414901733398 -214.06808471679688
v -203.8419189453125 -36.93472290039062 -183.06166076660156
v -242.69833374023438 -48.70142364501953 -152.05523681640625
v -233.83343505859375 -75.97755432128906 -152.05523681640625
v -224.96855163574219 -103.25367736816406 -152.05523681640625
v -142.53329467773438 -154.44017028808594 -199.83868408203125
v -167.05674743652344 -146.47004699707031 -183.91085815429688
v -191.5802001953125 -138.49992370605469 -167.98304748535156
v -0.04044900089502 127.56915283203125 -261.0023193359375
v -0.04044900089502 151.96626281738281 -245.9237060546875
v -0.04044900089502 176.36335754394531 -230.8450927734375
v -24.56182861328125 208.7305908203125 -199.83868408203125
v -49.08320999145508 216.70069885253906 -183.91085815429688
v -73.60459136962891 224.67082214355469 -167.98304748535156
v -121.30666351318359 215.78314208984375 -152.02874755859375
v -144.48736572265625 198.92535400390625 -152.00224304199219
v -167.66806030273438 182.06755065917969 -151.97575378417969
v -47.74252700805664 118.68148040771484 -245.04800415039062
v -95.44460296630859 134.19090270996094 -214.01509094238281
v -143.14668273925781 149.70033264160156 -182.982177734375
v -190.68196105957031 87.83040618896484 -199.732421875
v -190.73756408691406 113.62352752685547 -183.80470275878906
v -190.79315185546875 139.41664123535156 -167.87698364257812
v -24.56182861328125 85.35112762451172 -276.0809326171875
v -49.08320999145508 67.53020477294922 -276.0809326171875
v -73.60459136962891 49.70927810668945 -276.0809326171875
v -88.76397705078125 245.53646850585938 -126.26831817626953
v -79.4019775390625 258.4320068359375 -100.48139953613281
v -70.03998565673828 271.32754516601562 -74.69448089599609
v -75.01095581054688 279.56484985351562 -24.50838661193848
v -89.34391784667969 274.90664672851562 -0.10921649634838
v -103.67687225341797 270.24844360351562 24.28995323181152
v -127.62038421630859 223.05526733398438 -101.86914825439453
v -157.11480712890625 213.46957397460938 -51.68305969238281
v -186.60922241210938 203.88389587402344 -1.49696695804596
v -242.91659545898438 157.70567321777344 -24.58819198608398
v -233.97894287109375 169.9031982421875 -0.16242000460625
v -225.04129028320312 182.1007080078125 24.26335144042969
v -206.10012817382812 160.28436279296875 -126.21543121337891
v -221.35150146484375 155.35896301269531 -100.48161315917969
v -236.60285949707031 150.43356323242188 -74.74778747558594
v 242.67547607421875 157.70567321777344 -24.53295135498047
v 233.81056213378906 169.9031982421875 -0.12559349834919
v 224.94566345214844 182.1007080078125 24.28176498413086
v 191.55110168457031 212.1212158203125 48.68912506103516
v 167.02142333984375 229.9442138671875 48.68912506103516
v 142.49176025390625 247.7672119140625 48.68912506103516
v 74.94456481933594 279.56484985351562 -24.50838661193848
v 89.28374481201172 274.90664672851562 -0.10921649634838
v 103.62291717529297 270.24844360351562 24.28995323181152
v 203.80662536621094 180.1868896484375 -48.93212127685547
v 156.0728759765625 214.86561584472656 -48.92393493652344
v 108.33913421630859 249.54434204101562 -48.91574478149414
v 167.6925048828125 182.06755065917969 -152.05523681640625
v 144.49049377441406 198.92535400390625 -152.05523681640625
v 121.28848266601562 215.78314208984375 -152.05523681640625
v 206.05598449707031 160.28436279296875 -126.27650451660156
v 221.21743774414062 155.35896301269531 -100.49777221679688
v 236.37890625 150.43356323242188 -74.71903991699219
v 24.49128150939941 208.7305908203125 -199.83868408203125
v 49.02301406860352 216.70069885253906 -183.91085815429688
v 73.55474853515625 224.67082214355469 -167.98304748535156
v 47.69329071044922 118.68148040771484 -245.07450866699219
v 95.42703247070312 134.19090270996094 -214.06808471679688
v 143.1607666015625 149.70033264160156 -183.06166076660156
v 73.55474853515625 49.70927810668945 -276.0809326171875
v 49.02301406860352 67.53020477294922 -276.0809326171875
v 24.49128150939941 85.35112762451172 -276.0809326171875
v 102.80270385742188 260.66482543945312 74.49671936035156
v 87.64331817626953 255.73941040039062 100.30431365966797
v 72.48392486572266 250.81401062011719 126.11190795898438
v -28.71673202514648 245.88859558105469 151.91949462890625
v -0.03630900010467 245.88859558105469 151.91949462890625
v 28.64411354064941 245.88859558105469 151.91949462890625
v 31.10475158691406 274.63946533203125 1.29920697212219
v 1.60411655902863 265.05584716796875 51.5059700012207
v -27.89651870727539 255.47221374511719 101.71273803710938
v 103.62288665771484 142.680908203125 230.74406433105469
v 89.28368377685547 122.94408416748047 245.8572998046875
v 74.94448089599609 103.20726776123047 260.97055053710938
v -30.35713005065918 83.47044372558594 275.92501831054688
v -0.03632849827409 83.47044372558594 275.97793579101562
v 30.28447341918945 83.47044372558594 276.03085327148438
v 27.82391929626465 205.2840576171875 182.90765380859375
v -1.67669701576233 164.67951965332031 213.89579772949219
v -31.17731475830078 124.07498168945312 244.88395690917969
v -103.67685699462891 142.680908203125 230.69114685058594
v -89.34387969970703 122.94408416748047 245.75146484375
v -75.01091003417969 103.20726776123047 260.81179809570312
v -72.55032348632812 225.0208740234375 167.84733581542969
v -87.70349884033203 204.15316772460938 183.77516174316406
v -102.85666656494141 183.28544616699219 199.70298767089844
v 279.6448974609375 58.99463653564453 -48.89123153686523
v 270.2767333984375 87.83248138427734 -48.9075927734375
v 260.90853881835938 116.67031860351562 -48.9239501953125
v 279.64495849609375 -17.25383186340332 74.49671936035156
v 270.27676391601562 -4.35830545425415 100.30431365966797
v 260.90853881835938 8.53722095489502 126.11190795898438
v 251.54035949707031 114.48931121826172 1.27464151382446
v 251.54035949707031 83.47045135498047 51.48959350585938
v 251.54035949707031 52.45159912109375 101.70454406738281
v 242.67544555664062 48.7088623046875 151.91949462890625
v 233.81056213378906 75.98497772216797 151.91949462890625
v 224.94566345214844 103.26109313964844 151.91949462890625
v 216.08076477050781 178.35797119140625 74.49671936035156
v 216.08076477050781 162.41770935058594 100.30431365966797
v 216.08076477050781 146.47746276855469 126.11190795898438
v 236.37889099121094 0.56710201501846 167.84733581542969
v 221.21743774414062 -20.29854393005371 183.77516174316406
v 206.05596923828125 -41.16418838500977 199.70298767089844
v 167.6925048828125 -54.49260330200195 230.70944213867188
v 144.49049377441406 -46.95537185668945 245.78805541992188
v 121.28848266601562 -39.41813659667969 260.86666870117188
v 186.58218383789062 89.93267822265625 182.92594909667969
v 157.0836181640625 49.32815170288086 213.93240356445312
v 127.58504486083984 8.72362232208252 244.93885803222656
v -242.72416687011719 48.7088623046875 151.90432739257812
v -233.85066223144531 75.98497772216797 151.90937805175781
v -224.97715759277344 103.26109313964844 151.91444396972656
v -279.54852294921875 -17.25383186340332 74.42754364013672
v -270.2315673828125 -4.35830545425415 100.25144958496094
v -260.91461181640625 8.53722095489502 126.07535552978516
v -288.97479248046875 15.08025646209717 -24.52975845336914
v -288.9383544921875 0.00371850002557 -0.15196050703526
v -288.90191650390625 -15.07281970977783 24.22583770751953
v -270.78433227539062 55.25189971923828 1.29920697212219
v -252.55743408203125 80.34700012207031 51.5059700012207
v -234.33055114746094 105.44210815429688 101.71273803710938
v -261.14349365234375 116.67031860351562 -48.98736190795898
v -270.4327392578125 87.83248138427734 -48.96076202392578
v -279.72198486328125 58.99463653564453 -48.93415832519531
v -216.10365295410156 178.35797119140625 74.49671936035156
v -216.10365295410156 162.41770935058594 100.30431365966797
v -216.10365295410156 146.47746276855469 126.11190795898438
v -234.29409790039062 -105.4346923828125 -101.89051818847656
v -252.48455810546875 -80.33958435058594 -51.72580337524414
v -270.67501831054688 -55.24446868896484 -1.56108295917511
v -224.96855163574219 -182.09324645996094 -24.50838661193848
v -233.83343505859375 -169.89573669433594 -0.10921649634838
v -242.69833374023438 -157.69822692871094 24.28995323181152
v -216.10365295410156 -146.47004699707031 -126.26831817626953
v -216.10365295410156 -162.41029357910156 -100.48139953613281
v -216.10365295410156 -178.35052490234375 -74.69448089599609
v -142.53329467773438 -247.759765625 -48.90755844116211
v -167.05674743652344 -229.936767578125 -48.90755844116211
v -191.5802001953125 -212.11376953125 -48.90755844116211
v -108.39930725097656 -249.54310607910156 48.68912506103516
v -156.12062072753906 -214.8623046875 48.68912506103516
v -203.8419189453125 -180.18150329589844 48.68912506103516
v -167.71954345703125 -182.06011962890625 151.91949462890625
v -144.52168273925781 -198.91792297363281 151.91949462890625
v -121.32382202148438 -215.77572631835938 151.91949462890625
v -191.5802001953125 138.50733947753906 167.84733581542969
v -167.05674743652344 146.47746276855469 183.77516174316406
v -142.53329467773438 154.44760131835938 199.70298767089844
v -203.86773681640625 36.94217300415039 182.89247131347656
v -156.13780212402344 52.45159530639648 213.88568115234375
v -108.40786743164062 67.96102142333984 244.87889099121094
v -70.03990936279297 54.63260650634766 275.85577392578125
v -79.40188598632812 25.79476928710938 275.83941650390625
v -88.76386260986328 -3.04306864738464 275.82308959960938
v -167.82882690429688 -54.49882125854492 230.7388916015625
v -144.59449768066406 -46.95951461791992 245.76150512695312
v -121.36016845703125 -39.42021179199219 260.78411865234375
v -236.46405029296875 0.56502902507782 167.853515625
v -221.33041381835938 -20.30268859863281 183.80776977539062
v -206.19677734375 -41.17040634155273 199.76202392578125
v -190.95384216308594 -139.41127014160156 167.86869812011719
v -190.99028015136719 -113.62021636962891 183.81788635253906
v -191.02671813964844 -87.82917022705078 199.76708984375
v -98.12593841552734 -182.44537353515625 182.89131164550781
v -98.12590789794922 -132.25721740722656 213.86311340332031
v -98.12586975097656 -82.06906127929688 244.83493041992188
v -24.55558776855469 -85.34368896484375 275.91067504882812
v -49.07900619506836 -67.52275848388672 275.87600708007812
v -73.60242462158203 -49.70183563232422 275.84136962890625
v -0.03216899931431 -176.35594177246094 230.70945739746094
v -0.03216899931431 -151.95883178710938 245.78807067871094
v -0.03216899931431 -127.56172180175781 260.86669921875
v -73.60251617431641 -224.66340637207031 167.84733581542969
v -49.07906723022461 -216.69328308105469 183.77517700195312
v -24.55561828613281 -208.72315979003906 199.7030029296875
v 47.69950103759766 -166.07223510742188 215.63084411621094
v 95.43117523193359 -131.39143371582031 215.63082885742188
v 143.162841796875 -96.71063232421875 215.63082885742188
v 121.28848266601562 -215.77569580078125 151.94902038574219
v 144.49049377441406 -198.91792297363281 151.91957092285156
v 167.6925048828125 -182.06015014648438 151.89012145996094
v 73.55681610107422 -224.66336059570312 167.89155578613281
v 49.02715301513672 -216.69325256347656 183.80465698242188
v 24.49749183654785 -208.72314453125 199.71774291992188
v 69.97566223144531 -271.3262939453125 74.51145935058594
v 79.34593200683594 -258.42868041992188 100.33379364013672
v 88.71620178222656 -245.53108215332031 126.1561279296875
v 136.26271057128906 -240.4876708984375 1.30894577503204
v 154.47331237792969 -215.392578125 51.49285507202148
v 172.68391418457031 -190.29747009277344 101.67676544189453
v 142.58381652832031 -247.759765625 -48.91777801513672
v 167.11552429199219 -229.936767578125 -48.96059036254883
v 191.64723205566406 -212.11376953125 -49.00340270996094
v 39.65685272216797 -38.68492126464844 275.97991943359375
v 54.81621551513672 7.97384262084961 276.0145263671875
v 64.18651580810547 -20.8639965057373 275.97991943359375
v 112.17298126220703 196.18302917480469 167.84733581542969
v 151.86204528808594 167.34518432617188 167.84733581542969
v 127.33237457275391 175.3153076171875 183.77516174316406
v 206.05596923828125 -108.69068908691406 157.95286560058594
v 221.21743774414062 -129.55841064453125 116.21743774414062
v 206.05596923828125 -134.48382568359375 142.01033020019531
v 221.21743774414062 46.11302185058594 -167.96484375
v 206.05596923828125 92.75787353515625 -167.98304748535156
v 206.05596923828125 66.95082855224609 -183.92906188964844
v 112.10550689697266 -196.17559814453125 -167.94834899902344
v 151.79449462890625 -167.3377685546875 -168.01760864257812
v 127.28736877441406 -175.30789184570312 -183.91081237792969
v 49.02508544921875 -25.78732490539551 -276.0809326171875
v 9.33396911621094 -54.62516403198242 -276.0809326171875
v 39.65481567382812 -54.62516403198242 -276.0809326171875
v -230.456787109375 33.20151901245117 -158.07077026367188
v -255.05300903320312 25.23139572143555 -116.38262939453125
v -245.69100952148438 12.33587169647217 -142.16954040527344
v -102.85666656494141 -209.07113647460938 -158.12394714355469
v -102.85666656494141 -234.86424255371094 -116.40921020507812
v -87.70349884033203 -229.9388427734375 -142.19613647460938
v -255.05288696289062 -92.75043487548828 74.45397186279297
v -230.56587219238281 -126.513671875 100.28293609619141
v -245.72732543945312 -121.58827209472656 74.47534942626953
v -49.08113479614258 -258.4287109375 100.30431365966797
v -9.39829635620117 -271.32632446289062 74.49671936035156
v -39.71914291381836 -271.32632446289062 74.49671936035156
v -112.22695159912109 237.91641235351562 100.30431365966797
v -151.903564453125 225.01881408691406 74.49671936035156
v -127.38011932373047 242.84181213378906 74.49671936035156
v 9.33396911621094 271.32754516601562 -74.69448089599609
v 49.02508544921875 258.4320068359375 -100.48139953613281
v 39.65481567382812 271.32754516601562 -74.69448089599609
v 49.04050064086914 -271.14300537109375 -19.78156852722168
v 23.11393356323242 -262.72238159179688 -63.86124038696289
v -2.81263422966003 -254.30177307128906 -107.94091033935547
v 66.97624969482422 -267.64779663085938 -38.06616973876953
v 44.62374877929688 -260.39224243164062 -76.03942108154297
v 22.2712516784668 -253.13670349121094 -114.01266479492188
v 84.91200256347656 -264.152587890625 -56.35077285766602
v 66.13356781005859 -258.06210327148438 -88.21759796142578
v 47.35513687133789 -251.97161865234375 -120.08442687988281
v -46.84160995483398 -259.160888671875 -82.52896118164062
v -21.13289070129395 -267.51522827148438 -38.78959655761719
v 4.57582569122314 -275.86956787109375 4.94976329803467
v -65.78669738769531 -262.85494995117188 -63.18876647949219
v -43.86989974975586 -269.97793579101562 -25.89613723754883
v -21.95310020446777 -277.10092163085938 11.39649295806885
v -84.73178863525391 -266.54901123046875 -43.84857559204102
v -66.60691070556641 -272.44064331054688 -13.00267696380615
v -48.48202896118164 -278.332275390625 17.84322357177734
v 46.72309875488281 -189.62582397460938 -194.92953491210938
v 21.02968406677246 -154.23822021484375 -221.97999572753906
v -4.66373252868652 -118.85060882568359 -249.03045654296875
v 65.68970489501953 -173.97505187988281 -206.90138244628906
v 43.78103637695312 -143.80436706542969 -229.96122741699219
v 21.87236595153809 -113.63368225097656 -253.02108764648438
v 84.65631103515625 -158.32426452636719 -218.87324523925781
v 66.53238677978516 -133.37051391601562 -237.94247436523438
v 48.40846633911133 -108.41675567626953 -257.01168823242188
v -49.11404037475586 -138.87016296386719 -233.73954772949219
v -23.21712493896484 -174.54048156738281 -206.47679138183594
v 2.67978930473328 -210.2108154296875 -179.21401977539062
v -67.02825164794922 -153.67277526855469 -222.43925476074219
v -44.71258163452148 -184.40890502929688 -198.95481872558594
v -22.39691543579102 -215.14501953125 -175.47036743164062
v -84.94245910644531 -168.47538757324219 -211.13896179199219
v -66.20803833007812 -194.27731323242188 -191.43284606933594
v -47.4736213684082 -220.0792236328125 -171.72671508789062
v 272.9793701171875 -37.11455535888672 -19.81162643432617
v 256.94558715820312 -59.15629196166992 -63.9213752746582
v 240.91183471679688 -81.19802856445312 -108.0311279296875
v 275.20120239257812 -18.98464202880859 -38.09167098999023
v 261.38931274414062 -37.97300338745117 -76.09046936035156
v 247.577392578125 -56.96136474609375 -114.08927154541016
v 277.42306518554688 -0.85472774505615 -56.37171936035156
v 265.8330078125 -16.78971290588379 -88.25956726074219
v 254.24296569824219 -32.72469711303711 -120.14740753173828
v 231.93951416015625 -124.59933471679688 -82.63283538818359
v 247.84132385253906 -102.72862243652344 -38.85884857177734
v 263.74313354492188 -80.85791015625 4.91513776779175
v 229.63276672363281 -143.76397705078125 -63.29268264770508
v 243.18077087402344 -125.11766052246094 -25.96541404724121
v 256.728759765625 -106.47134399414062 11.36185455322266
v 227.32603454589844 -162.92861938476562 -43.95252990722656
v 238.52020263671875 -147.50669860839844 -13.07197952270508
v 249.71437072753906 -132.08477783203125 17.80857276916504
v 194.778076171875 -14.05516242980957 -194.980224609375
v 153.17727661132812 -27.5784969329834 -222.0137939453125
v 111.57646942138672 -41.10182952880859 -249.04736328125
v 185.74955749511719 8.78265476226807 -206.953369140625
v 150.28167724609375 -2.74067163467407 -229.99589538574219
v 114.81380462646484 -14.26399803161621 -253.03840637207031
v 176.72102355957031 31.6204719543457 -218.92652893066406
v 147.38609313964844 22.09715270996094 -237.97799682617188
v 118.0511474609375 12.57383346557617 -257.02944946289062
v 116.87165069580078 -89.56478881835938 -233.76055908203125
v 158.79873657226562 -75.92975616455078 -206.51878356933594
v 200.725830078125 -62.29471969604492 -179.27702331542969
v 125.4041748046875 -111.18991851806641 -222.46479797363281
v 161.52461242675781 -99.44319152832031 -199.00588989257812
v 197.64505004882812 -87.69645690917969 -175.54698181152344
v 133.93670654296875 -132.81504821777344 -211.16903686523438
v 164.25048828125 -122.95661926269531 -191.49298095703125
v 194.56427001953125 -113.09819030761719 -171.81694030761719
v -111.61224365234375 -41.10878753662109 -249.04981994628906
v -153.18449401855469 -27.5924072265625 -222.01869201660156
v -194.75675964355469 -14.07602977752686 -194.98757934570312
v -114.82518768310547 -14.26399517059326 -253.02511596679688
v -150.24838256835938 -2.74066495895386 -229.96931457519531
v -185.67158508300781 8.78266525268555 -206.91349792480469
v -118.03812408447266 12.58079624176025 -257.00042724609375
v -147.31227111816406 22.1110782623291 -237.919921875
v -176.58642578125 31.64135932922363 -218.83943176269531
v -200.7764892578125 -62.32602691650391 -179.29200744628906
v -158.85464477539062 -75.95063018798828 -206.52877807617188
v -116.93280029296875 -89.57522583007812 -233.76554870605469
v -197.7110595703125 -87.71733093261719 -175.52235412597656
v -161.58868408203125 -99.45709991455078 -198.98947143554688
v -125.46629333496094 -111.19687652587891 -222.45658874511719
v -194.6456298828125 -113.10862731933594 -171.75270080566406
v -164.32270812988281 -122.96357727050781 -191.45016479492188
v -133.99978637695312 -132.81852722167969 -211.14762878417969
v -41.94735336303711 141.19375610351562 -233.74568176269531
v -83.85425567626953 154.818359375 -206.48902893066406
v -125.76116180419922 168.44296264648438 -179.23239135742188
v -36.15217590332031 163.70603942871094 -222.44334411621094
v -72.26390838623047 175.44580078125 -198.96298217773438
v -108.37563323974609 187.18557739257812 -175.48262023925781
v -30.35700225830078 186.21830749511719 -211.14100646972656
v -60.67355728149414 196.07325744628906 -191.43692016601562
v -90.9901123046875 205.92820739746094 -171.73283386230469
v -149.23532104492188 125.9002685546875 -194.92796325683594
v -107.677490234375 112.38388824462891 -221.97895812988281
v -66.11965942382812 98.86750793457031 -249.02993774414062
v -155.323974609375 102.10019683837891 -206.87376403808594
v -119.91038513183594 90.57686614990234 -229.94281005859375
v -84.49679565429688 79.05353546142578 -253.01187133789062
v -161.41261291503906 78.30012512207031 -218.81954956054688
v -132.14326477050781 68.76984405517578 -237.90667724609375
v -102.87393188476562 59.23955917358398 -256.99380493164062
v -114.46803283691406 237.18266296386719 -82.52896118164062
v -140.17208862304688 228.82884216308594 -38.78959655761719
v -165.87614440917969 220.47503662109375 4.94976329803467
v -101.315673828125 251.31005859375 -63.18876647949219
v -123.22936248779297 244.1881103515625 -25.89613723754883
v -145.14305114746094 237.066162109375 11.39649295806885
v -88.16331481933594 265.43746948242188 -43.84857559204102
v -106.28663635253906 259.54739379882812 -13.00267696380615
v -124.40996551513672 253.65730285644531 17.84322357177734
v -199.10763549804688 190.52131652832031 -19.80967140197754
v -173.17398071289062 198.94192504882812 -63.88269424438477
v -147.24032592773438 207.36253356933594 -107.95571899414062
v -211.60604858398438 177.15873718261719 -38.12237548828125
v -189.233154296875 184.41427612304688 -76.08233642578125
v -166.86026000976562 191.66981506347656 -114.04228973388672
v -224.10446166992188 163.796142578125 -56.43508148193359
v -205.29232788085938 169.88661193847656 -88.28197479248047
v -186.48019409179688 175.97708129882812 -120.12886047363281
v 200.74273681640625 188.17047119140625 -24.52681159973145
v 158.81001281738281 218.63526916503906 -24.52066993713379
v 116.87728881835938 249.10006713867188 -24.51452827453613
v 197.67886352539062 196.154052734375 -0.12149924784899
v 161.54714965820312 222.40492248535156 -0.11740499734879
v 125.41545104980469 248.65577697753906 -0.11331074684858
v 194.61497497558594 204.13763427734375 24.28381156921387
v 164.28428649902344 226.17457580566406 24.28586006164551
v 133.95359802246094 248.21150207519531 24.28790664672852
v 111.57646942138672 241.10404968261719 -74.70062255859375
v 153.17727661132812 210.88055419921875 -74.70676422119141
v 194.77809143066406 180.65705871582031 -74.71289825439453
v 114.81381225585938 232.66374206542969 -100.48549652099609
v 150.28169250488281 206.89549255371094 -100.48958587646484
v 185.74955749511719 181.12722778320312 -100.49368286132812
v 118.0511474609375 224.22344970703125 -126.27036285400391
v 147.38609313964844 202.91041564941406 -126.27241516113281
v 176.72103881835938 181.59739685058594 -126.27445983886719
v 125.75926208496094 168.44296264648438 -179.29200744628906
v 83.82602691650391 154.818359375 -206.52877807617188
v 41.89278793334961 141.19375610351562 -233.76554870605469
v 108.35775756835938 187.18557739257812 -175.52235412597656
v 72.22502136230469 175.44580078125 -198.98947143554688
v 36.09228515625 163.70603942871094 -222.45658874511719
v 90.95625305175781 205.92820739746094 -171.75270080566406
v 60.62401962280273 196.07325744628906 -191.45016479492188
v 30.29178428649902 186.21830749511719 -211.14762878417969
v 66.09208679199219 98.86402893066406 -249.06100463867188
v 107.69289398193359 112.37692260742188 -222.04109191894531
v 149.293701171875 125.88982391357422 -195.02116394042969
v 84.49089050292969 79.04656982421875 -253.04751586914062
v 119.95876312255859 90.56294250488281 -230.01409912109375
v 155.4266357421875 102.07931518554688 -206.98068237304688
v 102.88968658447266 59.22911834716797 -257.03402709960938
v 132.22462463378906 68.74896240234375 -237.98709106445312
v 161.5595703125 78.268798828125 -218.940185546875
v 49.02923965454102 271.14578247070312 19.59858512878418
v 23.11391639709473 262.72674560546875 63.7055549621582
v -2.80140781402588 254.30766296386719 107.81253051757812
v 66.95372772216797 267.65213012695312 37.8979606628418
v 44.62371444702148 260.39761352539062 75.90514373779297
v 22.29370307922363 253.14311218261719 113.91232299804688
v 84.87821960449219 264.15847778320312 56.19734191894531
v 66.13351440429688 258.06851196289062 88.10472869873047
v 47.38881301879883 251.97856140136719 120.01211547851562
v -46.84160995483398 259.166259765625 82.35704040527344
v -21.13289070129395 267.5185546875 38.6021728515625
v 4.57582569122314 275.87081909179688 -5.15269136428833
v -65.78669738769531 262.86032104492188 63.0013427734375
v -43.86989974975586 269.98123168945312 25.69837760925293
v -21.95310020446777 277.1021728515625 -11.60458946228027
v -84.73178863525391 266.55438232421875 43.64564895629883
v -66.60691070556641 272.44393920898438 12.79458045959473
v -48.48202896118164 278.33352661132812 -18.05648803710938
v 46.77366256713867 189.63327026367188 194.86676025390625
v 21.06339836120605 154.24566650390625 221.88616943359375
v -4.64686584472656 118.85805511474609 248.90559387207031
v 65.72340393066406 173.98248291015625 206.82585144042969
v 43.80349349975586 143.81179809570312 229.87655639648438
v 21.88358306884766 113.64112854003906 252.92724609375
v 84.67314910888672 158.33169555664062 218.78495788574219
v 66.54358673095703 133.37794494628906 237.86692810058594
v 48.41403198242188 108.4241943359375 256.94888305664062
v -49.09715270996094 138.87759399414062 233.58871459960938
v -23.18339729309082 174.54792785644531 206.36564636230469
v 2.73035860061646 210.21826171875 179.142578125
v -67.01699066162109 153.68022155761719 222.29347229003906
v -44.69009780883789 184.41633605957031 198.83547973632812
v -22.36320304870605 215.1524658203125 175.37748718261719
v -84.93682861328125 168.48283386230469 210.99822998046875
v -66.19679260253906 194.28475952148438 191.30531311035156
v -47.45676422119141 220.086669921875 171.61241149902344
v 260.90853881835938 89.63704681396484 -5.16498708724976
v 260.90853881835938 62.6037712097168 38.59397888183594
v 260.90853881835938 35.57049560546875 82.35294342041016
v 270.2767333984375 64.78478240966797 -11.60461616516113
v 270.2767333984375 41.73708724975586 25.69836044311523
v 270.2767333984375 18.68939018249512 63.00133514404297
v 279.64492797851562 39.93251800537109 -18.04424476623535
v 279.64492797851562 20.87040328979492 12.80274295806885
v 279.64495849609375 1.80828547477722 43.64973068237305
v 242.67546081542969 75.95806884765625 107.80638885498047
v 242.67546081542969 103.20726776123047 63.69327163696289
v 242.67546081542969 130.45646667480469 19.58016014099121
v 233.81056213378906 99.46453094482422 113.90822601318359
v 233.81056213378906 122.94408416748047 75.89694976806641
v 233.81056213378906 146.42364501953125 37.88568115234375
v 224.94566345214844 122.97099304199219 120.01006317138672
v 224.94566345214844 142.68089294433594 88.10063171386719
v 224.94566345214844 162.39080810546875 56.19120025634766
v 199.0313720703125 67.59128570556641 179.15629577636719
v 173.1170654296875 31.92147827148438 206.39309692382812
v 147.20277404785156 -3.74833059310913 233.6298828125
v 211.48054504394531 45.2498893737793 175.38664245605469
v 189.15052795410156 14.51480388641357 198.85377502441406
v 166.82051086425781 -16.22028350830078 222.3209228515625
v 223.92971801757812 22.90849685668945 171.61698913574219
v 205.18397521972656 -2.89186954498291 191.31446838378906
v 186.43824768066406 -28.69223594665527 211.011962890625
v 114.42490386962891 32.34453201293945 248.94677734375
v 140.13363647460938 67.73213195800781 221.91361999511719
v 165.84236145019531 103.11973571777344 194.88047790527344
v 101.26476287841797 55.9654426574707 252.95469665527344
v 123.18365478515625 86.13611602783203 229.89485168457031
v 145.1025390625 116.30679321289062 206.83500671386719
v 88.10462188720703 79.58635711669922 256.96261596679688
v 106.23366546630859 104.54010009765625 237.87606811523438
v 124.36271667480469 129.49385070800781 218.78953552246094
v -240.9765625 81.21588134765625 107.80339050292969
v -256.97598266601562 59.17067337036133 63.69234085083008
v -272.97537231445312 37.12546539306641 19.58129119873047
v -247.62258911132812 56.98966217041016 113.89405059814453
v -261.39450073242188 37.99434661865234 75.87870788574219
v -275.16641235351562 18.99903297424316 37.86337661743164
v -254.26860046386719 32.76344299316406 119.98470306396484
v -265.81304931640625 16.81802177429199 88.06507873535156
v -277.35748291015625 0.8726007938385 56.14545822143555
v -263.81741333007812 80.86534118652344 -5.17264270782471
v -247.91281127929688 102.73604583740234 38.58887481689453
v -232.00822448730469 124.60675811767578 82.35038757324219
v -256.8504638671875 106.47879028320312 -11.64449214935303
v -243.2681884765625 125.12509918212891 25.67177581787109
v -229.6859130859375 143.77140808105469 62.98804473876953
v -249.88352966308594 132.09223937988281 -18.11634254455566
v -238.62356567382812 147.51414489746094 12.75467777252197
v -227.36360168457031 162.93605041503906 43.62569808959961
v -240.95188903808594 -81.20846557617188 -107.98497009277344
v -256.93521118164062 -59.16324996948242 -63.91469955444336
v -272.91854858398438 -37.11803436279297 -19.84443092346191
v -247.60966491699219 -56.98223495483398 -114.07942199707031
v -261.38589477539062 -37.98691558837891 -76.10359954833984
v -275.162109375 -18.99160003662109 -38.12778091430664
v -254.2674560546875 -32.75600433349609 -120.17386627197266
v -265.83657836914062 -16.81058502197266 -88.29249572753906
v -277.40567016601562 -0.86516380310059 -56.41112899780273
v -263.68084716796875 -80.85791015625 4.90167617797852
v -247.82177734375 -102.72862243652344 -38.8216552734375
v -231.96270751953125 -124.59933471679688 -82.54499053955078
v -256.68667602539062 -106.47134399414062 11.36443519592285
v -243.15899658203125 -125.11766052246094 -25.91750907897949
v -229.63131713867188 -143.76397705078125 -63.19945526123047
v -249.6925048828125 -132.08477783203125 17.82719421386719
v -238.4962158203125 -147.50669860839844 -13.01336288452148
v -227.2999267578125 -162.92861938476562 -43.85391998291016
v -116.93280029296875 -249.09727478027344 24.28995323181152
v -158.85464477539062 -218.63092041015625 24.28995323181152
v -200.7764892578125 -188.16456604003906 24.28995323181152
v -125.46629333496094 -248.65144348144531 -0.10921649634838
v -161.58868408203125 -222.3995361328125 -0.10921649634838
v -197.7110595703125 -196.14764404296875 -0.10921649634838
v -133.99978637695312 -248.20561218261719 -24.50838661193848
v -164.32270812988281 -226.16815185546875 -24.50838661193848
v -194.6456298828125 -204.13070678710938 -24.50838661193848
v -194.81132507324219 -180.65115356445312 74.49671936035156
v -153.22088623046875 -210.876220703125 74.49671936035156
v -111.63043212890625 -241.10127258300781 74.49671936035156
v -185.78073120117188 -181.12081909179688 100.30431365966797
v -150.32115173339844 -206.89012145996094 100.30431365966797
v -114.86156463623047 -232.659423828125 100.30431365966797
v -176.75013732910156 -181.59046936035156 126.11190795898438
v -147.42141723632812 -202.90402221679688 126.11190795898438
v -118.09269714355469 -224.21757507324219 126.11190795898438
v -200.79585266113281 62.33346176147461 179.13119506835938
v -158.86753845214844 75.95806121826172 206.35806274414062
v -116.93922424316406 89.58266448974609 233.58491516113281
v -197.72396850585938 87.72475433349609 175.36990356445312
v -161.59727478027344 99.46453094482422 198.83042907714844
v -125.4705810546875 111.20430755615234 222.29093933105469
v -194.65208435058594 113.11604309082031 171.60861206054688
v -164.32701110839844 122.97100067138672 191.30279541015625
v -134.00193786621094 132.82595825195312 210.99696350097656
v -111.64594268798828 41.1157112121582 248.85520935058594
v -153.25198364257812 27.59881782531738 221.85464477539062
v -194.85801696777344 14.08192348480225 194.85408020019531
v -114.88401794433594 14.27040481567383 252.83151245117188
v -150.36614990234375 2.74604034423828 229.82359313964844
v -185.84828186035156 -8.77832412719727 206.81568908691406
v -118.12209320068359 -12.57490348815918 256.80783081054688
v -147.48033142089844 -22.10673713684082 237.79255676269531
v -176.83854675292969 -31.63857269287109 218.77729797363281
v -121.33290863037109 -171.68684387207031 179.13565063476562
v -121.34199523925781 -127.59796905517578 206.351806640625
v -121.35108184814453 -83.50909423828125 233.56796264648438
v -144.53988647460938 -160.92832946777344 175.3800048828125
v -144.55809020996094 -122.938720703125 198.84049987792969
v -144.5762939453125 -84.94911956787109 222.30101013183594
v -167.74685668945312 -150.1697998046875 171.62434387207031
v -167.77418518066406 -118.27947235107422 191.32919311523438
v -167.80149841308594 -86.38914489746094 211.03404235839844
v -73.60244750976562 -93.44223022460938 248.84286499023438
v -73.60247039794922 -137.1826171875 221.8443603515625
v -73.60249328613281 -180.92301940917969 194.84584045410156
v -49.07902145385742 -104.81539154052734 252.85081481933594
v -49.07903671264648 -142.1080322265625 229.82559204101562
v -49.07905197143555 -179.40065002441406 206.80038452148438
v -24.55559539794922 -116.18856048583984 256.85873413085938
v -24.55560302734375 -147.03343200683594 237.80683898925781
v -24.55561065673828 -177.8782958984375 218.75492858886719
v 41.89899826049805 -145.89010620117188 230.70945739746094
v 83.83016967773438 -115.42427062988281 230.70945739746094
v 125.76133728027344 -84.95843505859375 230.70944213867188
v 36.09849548339844 -125.70796203613281 245.78807067871094
v 72.22916412353516 -99.45709991455078 245.78807067871094
v 108.35982513427734 -73.20623779296875 245.78807067871094
v 30.29799461364746 -105.52582550048828 260.86669921875
v 60.62815856933594 -83.48992919921875 260.86669921875
v 90.95832061767578 -61.45403289794922 260.86669921875
v 149.29525756835938 -118.04801177978516 199.69564819335938
v 107.69599914550781 -148.27305603027344 199.70301818847656
v 66.09674835205078 -178.49810791015625 199.71038818359375
v 155.42767333984375 -139.38539123535156 183.76048278808594
v 119.96083068847656 -165.15467834472656 183.77520751953125
v 84.49399566650391 -190.92396545410156 183.78993225097656
v 161.56008911132812 -160.72276306152344 167.82530212402344
v 132.22566223144531 -182.03630065917969 167.84738159179688
v 102.8912353515625 -203.34982299804688 167.86947631835938
v 119.69094848632812 -248.19732666015625 19.60957336425781
v 135.69146728515625 -226.15159606933594 63.70309066772461
v 151.69198608398438 -204.10586547851562 107.79660797119141
v 103.11918640136719 -255.906982421875 37.91020202636719
v 116.90962219238281 -236.91062927246094 75.91332244873047
v 130.70005798339844 -217.91427612304688 113.91645050048828
v 86.54742431640625 -263.61663818359375 56.21083068847656
v 98.12777709960938 -247.66966247558594 88.12355804443359
v 109.7081298828125 -231.72267150878906 120.03628540039062
v 190.18792724609375 -182.14765930175781 82.32139587402344
v 174.31990051269531 -204.01835632324219 38.57500457763672
v 158.45185852050781 -225.88906860351562 -5.17138576507568
v 207.69195556640625 -173.99784851074219 62.96603012084961
v 194.16647338867188 -192.64414978027344 25.65715599060059
v 180.6409912109375 -211.29046630859375 -11.65171718597412
v 225.19596862792969 -165.84803771972656 43.61066055297852
v 214.0130615234375 -181.26994323730469 12.73930549621582
v 202.83013916015625 -196.69186401367188 -18.13204765319824
v 16.5744571685791 41.26691436767578 276.00082397460938
v -12.29699802398682 45.72214508056641 275.95245361328125
v -41.16845321655273 50.17737579345703 275.90411376953125
v 2.86444282531738 -0.9366210103035 275.97076416015625
v -24.55766677856445 7.97384262084961 275.92697143554688
v -51.97977828979492 16.88430595397949 275.88320922851562
v -10.84557247161865 -43.14015579223633 275.94070434570312
v -36.81833648681641 -29.77445983886719 275.9014892578125
v -62.79109954833984 -16.40876388549805 275.8623046875
v 180.18154907226562 172.56159973144531 126.11190795898438
v 183.97140502929688 185.74813842773438 100.30431365966797
v 187.76124572753906 198.93467712402344 74.49671936035156
v 144.2823486328125 198.64573669433594 126.11190795898438
v 151.86204528808594 209.07856750488281 100.30431365966797
v 159.44172668457031 219.51138305664062 74.49671936035156
v 108.38313293457031 224.72987365722656 126.11190795898438
v 119.75267791748047 232.40898132324219 100.30431365966797
v 131.12222290039062 240.08810424804688 74.49671936035156
v 247.19540405273438 -97.78820037841797 86.44258880615234
v 258.01193237304688 -70.94341278076172 82.46063232421875
v 268.82843017578125 -44.0986213684082 78.47867584228516
v 233.48225402832031 -78.91352844238281 124.19606018066406
v 245.74708557128906 -54.06178665161133 116.23213958740234
v 258.01193237304688 -29.21004676818848 108.26822662353516
v 219.76911926269531 -60.03885650634766 161.94952392578125
v 233.48225402832031 -37.1801643371582 150.00364685058594
v 247.19540405273438 -14.32147216796875 138.05778503417969
v 219.76911926269531 118.09126281738281 -126.25876617431641
v 233.48225402832031 117.61761474609375 -100.48049926757812
v 247.19540405273438 117.14396667480469 -74.70222473144531
v 233.48225402832031 75.89816284179688 -126.24102783203125
v 245.74708557128906 79.87627410888672 -100.46321868896484
v 258.01190185546875 83.85437774658203 -74.68540191650391
v 247.19538879394531 33.7050666809082 -126.22328948974609
v 258.01190185546875 42.13492584228516 -100.44593811035156
v 268.82839965820312 50.56478118896484 -74.66858673095703
v 180.13803100585938 -172.55416870117188 -126.34416198730469
v 183.97442626953125 -185.74070739746094 -100.56391143798828
v 187.81082153320312 -198.92723083496094 -74.78365325927734
v 144.23835754394531 -198.6383056640625 -126.28150177001953
v 151.86407470703125 -209.07112121582031 -100.50786590576172
v 159.48980712890625 -219.50395202636719 -74.73423004150391
v 108.33869171142578 -224.72242736816406 -126.21884918212891
v 119.75373077392578 -232.40153503417969 -100.45182037353516
v 131.16877746582031 -240.08065795898438 -74.68479919433594
v -34.14130401611328 -28.54155349731445 -276.0809326171875
v -47.29573059082031 -2.45794320106506 -276.0809326171875
v -60.45016098022461 23.62566757202148 -276.0809326171875
v 1.75737857818604 -2.45794320106506 -276.0809326171875
v -15.18948364257812 20.87143898010254 -276.0809326171875
v -32.13634490966797 44.20082092285156 -276.0809326171875
v 37.65606307983398 23.62566757202148 -276.0809326171875
v 16.9167652130127 44.20082092285156 -276.0809326171875
v -3.82253193855286 64.77597045898438 -276.0809326171875
v -257.46197509765625 66.20358276367188 -86.63372802734375
v -250.50894165039062 94.28024291992188 -82.67174530029297
v -243.555908203125 122.35690307617188 -78.70977020263672
v -235.20196533203125 73.41252136230469 -124.33329010009766
v -230.58514404296875 100.72800445556641 -116.38272857666016
v -225.96832275390625 128.04348754882812 -108.43217468261719
v -212.94195556640625 80.62146759033203 -162.03286743164062
v -210.66134643554688 107.17576599121094 -150.09371948242188
v -208.3807373046875 133.73005676269531 -138.15457153320312
v -142.53329467773438 -224.42987060546875 -86.64033508300781
v -167.05674743652344 -209.07008361816406 -82.65838623046875
v -191.5802001953125 -193.71031188964844 -78.67642974853516
v -142.53329467773438 -201.0999755859375 -124.37311553955078
v -167.05674743652344 -188.20341491699219 -116.40921020507812
v -191.5802001953125 -175.30685424804688 -108.44530487060547
v -142.53329467773438 -177.77008056640625 -162.10589599609375
v -167.05674743652344 -167.33673095703125 -150.1600341796875
v -191.5802001953125 -156.90339660644531 -138.21417236328125
v -213.10250854492188 -108.87191009521484 144.50840759277344
v -210.80059814453125 -86.30474090576172 162.92628479003906
v -208.49868774414062 -63.73757553100586 181.34416198730469
v -235.25117492675781 -78.33255004882812 121.14811706542969
v -230.61091613769531 -58.98926162719727 142.03466796875
v -225.97067260742188 -39.64597702026367 162.92121887207031
v -257.39984130859375 -47.79319000244141 97.78783416748047
v -250.42124938964844 -31.67378425598145 121.14305877685547
v -243.44264221191406 -15.55437755584717 144.498291015625
v 34.08111572265625 -259.66058349609375 97.84542846679688
v 47.23968124389648 -247.99484252929688 121.19413757324219
v 60.39824676513672 -236.3291015625 144.5428466796875
v -1.81342911720276 -247.99485778808594 121.17939758300781
v 15.13343143463135 -237.56098937988281 142.05448913574219
v 32.08029174804688 -227.12712097167969 162.9295654296875
v -37.70797348022461 -236.32913208007812 144.51336669921875
v -16.97281837463379 -227.12713623046875 162.91482543945312
v 3.76233696937561 -217.92514038085938 181.3162841796875
v -180.21531677246094 190.02369689941406 97.83437347412109
v -184.00361633300781 172.85157775878906 121.17201995849609
v -187.79190063476562 155.67945861816406 144.50967407226562
v -144.32698059082031 201.68942260742188 121.17201995849609
v -151.903564453125 183.28543090820312 142.03973388671875
v -159.48016357421875 164.88145446777344 162.90744018554688
v -108.43865203857422 213.35514831542969 144.50967407226562
v -119.80353546142578 193.71929931640625 162.90744018554688
v -131.16841125488281 174.08345031738281 181.30522155761719
v 37.65606307983398 236.33500671386719 -144.66090393066406
v 16.9167652130127 227.13352966308594 -163.05349731445312
v -3.82253193855286 217.93205261230469 -181.44609069824219
v 1.75737857818604 247.99917602539062 -121.33876800537109
v -15.18948364257812 237.56636047363281 -142.19613647460938
v -32.13634490966797 227.13352966308594 -163.05349731445312
v -34.14130401611328 259.66336059570312 -98.01662445068359
v -47.29573059082031 247.99917602539062 -121.33876800537109
v -60.45016098022461 236.33500671386719 -144.66090393066406
# 930 vertices

f 69 63 59
f 427 62 63
f 63 69 427
f 68 427 69
f 428 61 62
f 62 427 428
f 429 428 427
f 427 68 429
f 67 429 68
f 64 57 61
f 61 428 64
f 65 64 428
f 428 429 65
f 66 65 429
f 429 67 66
f 58 66 67
f 76 70 48
f 430 71 70
f 70 76 430
f 77 430 76
f 431 72 71
f 71 430 431
f 432 431 430
f 430 77 432
f 78 432 77
f 73 50 72
f 72 431 73
f 74 73 431
f 431 432 74
f 75 74 432
f 432 78 75
f 54 75 78
f 87 81 55
f 433 80 81
f 81 87 433
f 86 433 87
f 434 79 80
f 80 433 434
f 435 434 433
f 433 86 435
f 85 435 86
f 82 33 79
f 79 434 82
f 83 82 434
f 434 435 83
f 84 83 435
f 435 85 84
f 42 84 85
f 96 88 12
f 436 89 88
f 88 96 436
f 95 436 96
f 437 90 89
f 89 436 437
f 438 437 436
f 436 95 438
f 94 438 95
f 93 13 90
f 90 437 93
f 92 93 437
f 437 438 92
f 91 92 438
f 438 94 91
f 9 91 94
f 105 99 20
f 439 98 99
f 99 105 439
f 104 439 105
f 440 97 98
f 98 439 440
f 441 440 439
f 439 104 441
f 103 441 104
f 102 11 97
f 97 440 102
f 101 102 440
f 440 441 101
f 100 101 441
f 441 103 100
f 8 100 103
f 114 108 3
f 442 107 108
f 108 114 442
f 113 442 114
f 443 106 107
f 107 442 443
f 444 443 442
f 442 113 444
f 112 444 113
f 109 1 106
f 106 443 109
f 110 109 443
f 443 444 110
f 111 110 444
f 444 112 111
f 2 111 112
f 121 115 6
f 445 116 115
f 115 121 445
f 122 445 121
f 446 117 116
f 116 445 446
f 447 446 445
f 445 122 447
f 123 447 122
f 120 30 117
f 117 446 120
f 119 120 446
f 446 447 119
f 118 119 447
f 447 123 118
f 17 118 123
f 130 124 7
f 448 125 124
f 124 130 448
f 131 448 130
f 449 126 125
f 125 448 449
f 450 449 448
f 448 131 450
f 132 450 131
f 129 21 126
f 126 449 129
f 128 129 449
f 449 450 128
f 127 128 450
f 450 132 127
f 19 127 132
f 141 133 40
f 451 134 133
f 133 141 451
f 140 451 141
f 452 135 134
f 134 451 452
f 453 452 451
f 451 140 453
f 139 453 140
f 138 43 135
f 135 452 138
f 137 138 452
f 452 453 137
f 136 137 453
f 453 139 136
f 39 136 139
f 150 144 44
f 454 143 144
f 144 150 454
f 149 454 150
f 455 142 143
f 143 454 455
f 456 455 454
f 454 149 456
f 148 456 149
f 147 32 142
f 142 455 147
f 146 147 455
f 455 456 146
f 145 146 456
f 456 148 145
f 31 145 148
f 159 153 47
f 457 152 153
f 153 159 457
f 158 457 159
f 458 151 152
f 152 457 458
f 459 458 457
f 457 158 459
f 157 459 158
f 154 37 151
f 151 458 154
f 155 154 458
f 458 459 155
f 156 155 459
f 459 157 156
f 38 156 157
f 168 162 28
f 460 161 162
f 162 168 460
f 167 460 168
f 461 160 161
f 161 460 461
f 462 461 460
f 460 167 462
f 166 462 167
f 163 14 160
f 160 461 163
f 164 163 461
f 461 462 164
f 165 164 462
f 462 166 165
f 27 165 166
f 180 463 171 32
f 179 464 463 180
f 178 465 464 179
f 19 175 465 178
f 463 466 170 171
f 464 467 466 463
f 465 468 467 464
f 175 176 468 465
f 466 469 169 170
f 467 470 469 466
f 468 471 470 467
f 176 177 471 468
f 469 174 23 169
f 470 173 174 469
f 471 172 173 470
f 177 20 172 471
f 178 472 127 19
f 179 473 472 178
f 180 474 473 179
f 32 147 474 180
f 472 475 128 127
f 473 476 475 472
f 474 477 476 473
f 147 146 477 474
f 475 478 129 128
f 476 479 478 475
f 477 480 479 476
f 146 145 480 477
f 478 181 21 129
f 479 182 181 478
f 480 183 182 479
f 145 31 183 480
f 189 481 105 20
f 188 482 481 189
f 187 483 482 188
f 1 109 483 187
f 481 484 104 105
f 482 485 484 481
f 483 486 485 482
f 109 110 486 483
f 484 487 103 104
f 485 488 487 484
f 486 489 488 485
f 110 111 489 486
f 487 186 8 103
f 488 185 186 487
f 489 184 185 488
f 111 2 184 489
f 187 490 190 1
f 188 491 490 187
f 189 492 491 188
f 20 177 492 189
f 490 493 191 190
f 491 494 493 490
f 492 495 494 491
f 177 176 495 492
f 493 496 192 191
f 494 497 496 493
f 495 498 497 494
f 176 175 498 495
f 496 130 7 192
f 497 131 130 496
f 498 132 131 497
f 175 19 132 498
f 204 499 195 34
f 203 500 499 204
f 202 501 500 203
f 11 199 501 202
f 499 502 194 195
f 500 503 502 499
f 501 504 503 500
f 199 200 504 501
f 502 505 193 194
f 503 506 505 502
f 504 507 506 503
f 200 201 507 504
f 505 198 25 193
f 506 197 198 505
f 507 196 197 506
f 201 12 196 507
f 202 508 205 11
f 203 509 508 202
f 204 510 509 203
f 34 213 510 204
f 508 511 206 205
f 509 512 511 508
f 510 513 512 509
f 213 212 513 510
f 511 514 207 206
f 512 515 514 511
f 513 516 515 512
f 212 211 516 513
f 514 208 24 207
f 515 209 208 514
f 516 210 209 515
f 211 33 210 516
f 219 517 96 12
f 218 518 517 219
f 217 519 518 218
f 2 112 519 217
f 517 520 95 96
f 518 521 520 517
f 519 522 521 518
f 112 113 522 519
f 520 523 94 95
f 521 524 523 520
f 522 525 524 521
f 113 114 525 522
f 523 216 9 94
f 524 215 216 523
f 525 214 215 524
f 114 3 214 525
f 217 526 184 2
f 218 527 526 217
f 219 528 527 218
f 12 201 528 219
f 526 529 185 184
f 527 530 529 526
f 528 531 530 527
f 201 200 531 528
f 529 532 186 185
f 530 533 532 529
f 531 534 533 530
f 200 199 534 531
f 532 100 8 186
f 533 101 100 532
f 534 102 101 533
f 199 11 102 534
f 226 535 220 1
f 227 536 535 226
f 228 537 536 227
f 17 123 537 228
f 535 538 221 220
f 536 539 538 535
f 537 540 539 536
f 123 122 540 537
f 538 541 222 221
f 539 542 541 538
f 540 543 542 539
f 122 121 543 540
f 541 223 5 222
f 542 224 223 541
f 543 225 224 542
f 121 6 225 543
f 228 544 229 17
f 227 545 544 228
f 226 546 545 227
f 1 190 546 226
f 544 547 230 229
f 545 548 547 544
f 546 549 548 545
f 190 191 549 546
f 547 550 231 230
f 548 551 550 547
f 549 552 551 548
f 191 192 552 549
f 550 234 18 231
f 551 233 234 550
f 552 232 233 551
f 192 7 232 552
f 244 553 235 4
f 245 554 553 244
f 246 555 554 245
f 16 243 555 246
f 553 556 236 235
f 554 557 556 553
f 555 558 557 554
f 243 242 558 555
f 556 559 237 236
f 557 560 559 556
f 558 561 560 557
f 242 241 561 558
f 559 238 10 237
f 560 239 238 559
f 561 240 239 560
f 241 15 240 561
f 246 562 249 16
f 245 563 562 246
f 244 564 563 245
f 4 250 564 244
f 562 565 248 249
f 563 566 565 562
f 564 567 566 563
f 250 251 567 564
f 565 568 247 248
f 566 569 568 565
f 567 570 569 566
f 251 252 570 567
f 568 225 6 247
f 569 224 225 568
f 570 223 224 569
f 252 5 223 570
f 259 571 253 15
f 260 572 571 259
f 261 573 572 260
f 37 154 573 261
f 571 574 254 253
f 572 575 574 571
f 573 576 575 572
f 154 155 576 573
f 574 577 255 254
f 575 578 577 574
f 576 579 578 575
f 155 156 579 576
f 577 256 28 255
f 578 257 256 577
f 579 258 257 578
f 156 38 258 579
f 261 580 264 37
f 260 581 580 261
f 259 582 581 260
f 15 241 582 259
f 580 583 263 264
f 581 584 583 580
f 582 585 584 581
f 241 242 585 582
f 583 586 262 263
f 584 587 586 583
f 585 588 587 584
f 242 243 588 585
f 586 267 29 262
f 587 266 267 586
f 588 265 266 587
f 243 16 265 588
f 277 589 268 26
f 278 590 589 277
f 279 591 590 278
f 27 274 591 279
f 589 592 269 268
f 590 593 592 589
f 591 594 593 590
f 274 275 594 591
f 592 595 270 269
f 593 596 595 592
f 594 597 596 593
f 275 276 597 594
f 595 271 35 270
f 596 272 271 595
f 597 273 272 596
f 276 36 273 597
f 279 598 165 27
f 278 599 598 279
f 277 600 599 278
f 26 285 600 277
f 598 601 164 165
f 599 602 601 598
f 600 603 602 599
f 285 284 603 600
f 601 604 163 164
f 602 605 604 601
f 603 606 605 602
f 284 283 606 603
f 604 282 14 163
f 605 281 282 604
f 606 280 281 605
f 283 13 280 606
f 291 607 280 13
f 290 608 607 291
f 289 609 608 290
f 4 235 609 289
f 607 610 281 280
f 608 611 610 607
f 609 612 611 608
f 235 236 612 609
f 610 613 282 281
f 611 614 613 610
f 612 615 614 611
f 236 237 615 612
f 613 288 14 282
f 614 287 288 613
f 615 286 287 614
f 237 10 286 615
f 289 616 294 4
f 290 617 616 289
f 291 618 617 290
f 13 93 618 291
f 616 619 293 294
f 617 620 619 616
f 618 621 620 617
f 93 92 621 618
f 619 622 292 293
f 620 623 622 619
f 621 624 623 620
f 92 91 624 621
f 622 214 3 292
f 623 215 214 622
f 624 216 215 623
f 91 9 216 624
f 301 625 274 27
f 302 626 625 301
f 303 627 626 302
f 47 298 627 303
f 625 628 275 274
f 626 629 628 625
f 627 630 629 626
f 298 299 630 627
f 628 631 276 275
f 629 632 631 628
f 630 633 632 629
f 299 300 633 630
f 631 295 36 276
f 632 296 295 631
f 633 297 296 632
f 300 48 297 633
f 303 634 159 47
f 302 635 634 303
f 301 636 635 302
f 27 166 636 301
f 634 637 158 159
f 635 638 637 634
f 636 639 638 635
f 166 167 639 636
f 637 640 157 158
f 638 641 640 637
f 639 642 641 638
f 167 168 642 639
f 640 258 38 157
f 641 257 258 640
f 642 256 257 641
f 168 28 256 642
f 310 643 76 48
f 311 644 643 310
f 312 645 644 311
f 56 307 645 312
f 643 646 77 76
f 644 647 646 643
f 645 648 647 644
f 307 308 648 645
f 646 649 78 77
f 647 650 649 646
f 648 651 650 647
f 308 309 651 648
f 649 304 54 78
f 650 305 304 649
f 651 306 305 650
f 309 57 306 651
f 312 652 315 56
f 311 653 652 312
f 310 654 653 311
f 48 300 654 310
f 652 655 314 315
f 653 656 655 652
f 654 657 656 653
f 300 299 657 654
f 655 658 313 314
f 656 659 658 655
f 657 660 659 656
f 299 298 660 657
f 658 318 53 313
f 659 317 318 658
f 660 316 317 659
f 298 47 316 660
f 325 661 321 26
f 326 662 661 325
f 327 663 662 326
f 49 324 663 327
f 661 664 320 321
f 662 665 664 661
f 663 666 665 662
f 324 323 666 663
f 664 667 319 320
f 665 668 667 664
f 666 669 668 665
f 323 322 669 666
f 667 193 25 319
f 668 194 193 667
f 669 195 194 668
f 322 34 195 669
f 327 670 328 49
f 326 671 670 327
f 325 672 671 326
f 26 268 672 325
f 670 673 329 328
f 671 674 673 670
f 672 675 674 671
f 268 269 675 672
f 673 676 330 329
f 674 677 676 673
f 675 678 677 674
f 269 270 678 675
f 676 333 50 330
f 677 332 333 676
f 678 331 332 677
f 270 35 331 678
f 340 679 330 50
f 341 680 679 340
f 342 681 680 341
f 58 339 681 342
f 679 682 329 330
f 680 683 682 679
f 681 684 683 680
f 339 338 684 681
f 682 685 328 329
f 683 686 685 682
f 684 687 686 683
f 338 337 687 684
f 685 334 49 328
f 686 335 334 685
f 687 336 335 686
f 337 55 336 687
f 342 688 66 58
f 341 689 688 342
f 340 690 689 341
f 50 73 690 340
f 688 691 65 66
f 689 692 691 688
f 690 693 692 689
f 73 74 693 690
f 691 694 64 65
f 692 695 694 691
f 693 696 695 692
f 74 75 696 693
f 694 306 57 64
f 695 305 306 694
f 696 304 305 695
f 75 54 304 696
f 354 697 345 46
f 353 698 697 354
f 352 699 698 353
f 30 349 699 352
f 697 700 344 345
f 698 701 700 697
f 699 702 701 698
f 349 350 702 699
f 700 703 343 344
f 701 704 703 700
f 702 705 704 701
f 350 351 705 702
f 703 348 45 343
f 704 347 348 703
f 705 346 347 704
f 351 40 346 705
f 352 706 357 30
f 353 707 706 352
f 354 708 707 353
f 46 360 708 354
f 706 709 356 357
f 707 710 709 706
f 708 711 710 707
f 360 359 711 708
f 709 712 355 356
f 710 713 712 709
f 711 714 713 710
f 359 358 714 711
f 712 262 29 355
f 713 263 262 712
f 714 264 263 713
f 358 37 264 714
f 361 715 231 18
f 362 716 715 361
f 363 717 716 362
f 40 351 717 363
f 715 718 230 231
f 716 719 718 715
f 717 720 719 716
f 351 350 720 717
f 718 721 229 230
f 719 722 721 718
f 720 723 722 719
f 350 349 723 720
f 721 118 17 229
f 722 119 118 721
f 723 120 119 722
f 349 30 120 723
f 363 724 141 40
f 362 725 724 363
f 361 726 725 362
f 18 367 726 361
f 724 727 140 141
f 725 728 727 724
f 726 729 728 725
f 367 368 729 726
f 727 730 139 140
f 728 731 730 727
f 729 732 731 728
f 368 369 732 729
f 730 366 39 139
f 731 365 366 730
f 732 364 365 731
f 369 22 364 732
f 373 733 183 31
f 374 734 733 373
f 375 735 734 374
f 39 366 735 375
f 733 736 182 183
f 734 737 736 733
f 735 738 737 734
f 366 365 738 735
f 736 739 181 182
f 737 740 739 736
f 738 741 740 737
f 365 364 741 738
f 739 370 21 181
f 740 371 370 739
f 741 372 371 740
f 364 22 372 741
f 375 742 136 39
f 374 743 742 375
f 373 744 743 374
f 31 148 744 373
f 742 745 137 136
f 743 746 745 742
f 744 747 746 743
f 148 149 747 744
f 745 748 138 137
f 746 749 748 745
f 747 750 749 746
f 149 150 750 747
f 748 376 43 138
f 749 377 376 748
f 750 378 377 749
f 150 44 378 750
f 382 751 343 45
f 383 752 751 382
f 384 753 752 383
f 56 315 753 384
f 751 754 344 343
f 752 755 754 751
f 753 756 755 752
f 315 314 756 753
f 754 757 345 344
f 755 758 757 754
f 756 759 758 755
f 314 313 759 756
f 757 379 46 345
f 758 380 379 757
f 759 381 380 758
f 313 53 381 759
f 384 760 385 56
f 383 761 760 384
f 382 762 761 383
f 45 391 762 382
f 760 763 386 385
f 761 764 763 760
f 762 765 764 761
f 391 392 765 762
f 763 766 387 386
f 764 767 766 763
f 765 768 767 764
f 392 393 768 765
f 766 390 60 387
f 767 389 390 766
f 768 388 389 767
f 393 52 388 768
f 397 769 378 44
f 398 770 769 397
f 399 771 770 398
f 60 390 771 399
f 769 772 377 378
f 770 773 772 769
f 771 774 773 770
f 390 389 774 771
f 772 775 376 377
f 773 776 775 772
f 774 777 776 773
f 389 388 777 774
f 775 394 43 376
f 776 395 394 775
f 777 396 395 776
f 388 52 396 777
f 399 778 402 60
f 398 779 778 399
f 397 780 779 398
f 44 406 780 397
f 778 781 401 402
f 779 782 781 778
f 780 783 782 779
f 406 407 783 780
f 781 784 400 401
f 782 785 784 781
f 783 786 785 782
f 407 408 786 783
f 784 405 59 400
f 785 404 405 784
f 786 403 404 785
f 408 51 403 786
f 409 787 403 51
f 410 788 787 409
f 411 789 788 410
f 55 337 789 411
f 787 790 404 403
f 788 791 790 787
f 789 792 791 788
f 337 338 792 789
f 790 793 405 404
f 791 794 793 790
f 792 795 794 791
f 338 339 795 792
f 793 69 59 405
f 794 68 69 793
f 795 67 68 794
f 339 58 67 795
f 411 796 87 55
f 410 797 796 411
f 409 798 797 410
f 51 417 798 409
f 796 799 86 87
f 797 800 799 796
f 798 801 800 797
f 417 416 801 798
f 799 802 85 86
f 800 803 802 799
f 801 804 803 800
f 416 415 804 801
f 802 414 42 85
f 803 413 414 802
f 804 412 413 803
f 415 41 412 804
f 421 805 169 23
f 422 806 805 421
f 423 807 806 422
f 42 414 807 423
f 805 808 170 169
f 806 809 808 805
f 807 810 809 806
f 414 413 810 807
f 808 811 171 170
f 809 812 811 808
f 810 813 812 809
f 413 412 813 810
f 811 418 32 171
f 812 419 418 811
f 813 420 419 812
f 412 41 420 813
f 423 814 84 42
f 422 815 814 423
f 421 816 815 422
f 23 424 816 421
f 814 817 83 84
f 815 818 817 814
f 816 819 818 815
f 424 425 819 816
f 817 820 82 83
f 818 821 820 817
f 819 822 821 818
f 425 426 822 819
f 820 210 33 82
f 821 209 210 820
f 822 208 209 821
f 426 24 208 822
f 309 823 61 57
f 308 824 823 309
f 307 825 824 308
f 56 385 825 307
f 823 826 62 61
f 824 827 826 823
f 825 828 827 824
f 385 386 828 825
f 826 829 63 62
f 827 830 829 826
f 828 831 830 827
f 386 387 831 828
f 829 400 59 63
f 830 401 400 829
f 831 402 401 830
f 387 60 402 831
f 333 832 72 50
f 332 833 832 333
f 331 834 833 332
f 35 271 834 331
f 832 835 71 72
f 833 836 835 832
f 834 837 836 833
f 271 272 837 834
f 835 838 70 71
f 836 839 838 835
f 837 840 839 836
f 272 273 840 837
f 838 297 48 70
f 839 296 297 838
f 840 295 296 839
f 273 36 295 840
f 211 841 79 33
f 212 842 841 211
f 213 843 842 212
f 34 322 843 213
f 841 844 80 79
f 842 845 844 841
f 843 846 845 842
f 322 323 846 843
f 844 847 81 80
f 845 848 847 844
f 846 849 848 845
f 323 324 849 846
f 847 336 55 81
f 848 335 336 847
f 849 334 335 848
f 324 49 334 849
f 283 850 90 13
f 284 851 850 283
f 285 852 851 284
f 26 321 852 285
f 850 853 89 90
f 851 854 853 850
f 852 855 854 851
f 321 320 855 852
f 853 856 88 89
f 854 857 856 853
f 855 858 857 854
f 320 319 858 855
f 856 196 12 88
f 857 197 196 856
f 858 198 197 857
f 319 25 198 858
f 205 859 97 11
f 206 860 859 205
f 207 861 860 206
f 24 426 861 207
f 859 862 98 97
f 860 863 862 859
f 861 864 863 860
f 426 425 864 861
f 862 865 99 98
f 863 866 865 862
f 864 867 866 863
f 425 424 867 864
f 865 172 20 99
f 866 173 172 865
f 867 174 173 866
f 424 23 174 867
f 220 868 106 1
f 221 869 868 220
f 222 870 869 221
f 5 252 870 222
f 868 871 107 106
f 869 872 871 868
f 870 873 872 869
f 252 251 873 870
f 871 874 108 107
f 872 875 874 871
f 873 876 875 872
f 251 250 876 873
f 874 292 3 108
f 875 293 292 874
f 876 294 293 875
f 250 4 294 876
f 357 877 117 30
f 356 878 877 357
f 355 879 878 356
f 29 267 879 355
f 877 880 116 117
f 878 881 880 877
f 879 882 881 878
f 267 266 882 879
f 880 883 115 116
f 881 884 883 880
f 882 885 884 881
f 266 265 885 882
f 883 247 6 115
f 884 248 247 883
f 885 249 248 884
f 265 16 249 885
f 370 886 126 21
f 371 887 886 370
f 372 888 887 371
f 22 369 888 372
f 886 889 125 126
f 887 890 889 886
f 888 891 890 887
f 369 368 891 888
f 889 892 124 125
f 890 893 892 889
f 891 894 893 890
f 368 367 894 891
f 892 232 7 124
f 893 233 232 892
f 894 234 233 893
f 367 18 234 894
f 394 895 135 43
f 395 896 895 394
f 396 897 896 395
f 52 393 897 396
f 895 898 134 135
f 896 899 898 895
f 897 900 899 896
f 393 392 900 897
f 898 901 133 134
f 899 902 901 898
f 900 903 902 899
f 392 391 903 900
f 901 346 40 133
f 902 347 346 901
f 903 348 347 902
f 391 45 348 903
f 418 904 142 32
f 419 905 904 418
f 420 906 905 419
f 41 415 906 420
f 904 907 143 142
f 905 908 907 904
f 906 909 908 905
f 415 416 909 906
f 907 910 144 143
f 908 911 910 907
f 909 912 911 908
f 416 417 912 909
f 910 406 44 144
f 911 407 406 910
f 912 408 407 911
f 417 51 408 912
f 358 913 151 37
f 359 914 913 358
f 360 915 914 359
f 46 379 915 360
f 913 916 152 151
f 914 917 916 913
f 915 918 917 914
f 379 380 918 915
f 916 919 153 152
f 917 920 919 916
f 918 921 920 917
f 380 381 921 918
f 919 316 47 153
f 920 317 316 919
f 921 318 317 920
f 381 53 318 921
f 288 922 160 14
f 287 923 922 288
f 286 924 923 287
f 10 238 924 286
f 922 925 161 160
f 923 926 925 922
f 924 927 926 923
f 238 239 927 924
f 925 928 162 161
f 926 929 928 925
f 927 930 929 926
f 239 240 930 927
f 928 255 28 162
f 929 254 255 928
f 930 253 254 929
f 240 15 253 930

